<svg width="24" height="24" xmlns="http://www.w3.org/2000/svg">
  <path color="#bebebe" d="m10.4 4c-3.478 0-7.4063 2.0586-7.4063 5.7266 0 4.418 0.71325 10.273 7.4063 10.273 2.9206 0 4.7002-1.1162 5.7812-2.7402 2.0804-0.33866 3.7781-1.7494 4.5059-3.3711 0.418-0.93 0.48116-2.1091-0.21484-2.9941-0.56815-0.72162-1.4894-1.0987-2.6699-1.2187-0.036978-3.6364-3.9408-5.6758-7.4023-5.6758zm0 2.0293v0.0019531a5.483 3.844 0 0 1 5.4824 3.8457 5.483 3.844 0 0 1-5.4824 3.8437 5.483 3.844 0 0 1-5.4824-3.8437 5.483 3.844 0 0 1 5.4824-3.8477zm7.3398 5.6406c0.71303 0.09747 1.0488 0.3209 1.1621 0.46484 0.148 0.188 0.18198 0.43755-0.04102 0.93555-0.24316 0.54234-0.83741 1.1594-1.5762 1.6152 0.25647-0.97612 0.38848-2.0036 0.45508-3.0156z" fill="#666" opacity=".4" overflow="visible" style="marker:none"/>
</svg>
