<svg width="24" height="24" xmlns="http://www.w3.org/2000/svg">
  <path color="#bebebe" d="M10.4 4C6.922 4 2.994 6.058 2.994 9.726 2.994 14.144 3.707 20 10.4 20s7.407-5.856 7.407-10.274C17.807 6.057 13.878 4 10.4 4zm0 2.031a5.483 3.844 0 015.482 3.845A5.483 3.844 0 0110.4 13.72a5.483 3.844 0 01-5.483-3.844A5.483 3.844 0 0110.4 6.03z" fill="#666" overflow="visible" style="marker:none"/>
  <path color="#bebebe" d="M16.98 9.62v2c1.26 0 1.774.326 1.922.514s.182.439-.041.937c-.447.997-2.06 2.268-3.631 2.268v2c2.506 0 4.621-1.587 5.457-3.45.418-.93.481-2.109-.215-2.994-.696-.884-1.898-1.275-3.492-1.275zM10.4 7.53c1.324 0 2.506.387 3.303.945s1.18 1.225 1.18 1.9c0 .677-.384 1.34-1.18 1.9s-1.979.944-3.303.944c-1.325 0-2.506-.386-3.303-.945s-1.18-1.222-1.18-1.898c0-.677.384-1.342 1.18-1.9S9.075 7.53 10.4 7.53z" fill="#666" overflow="visible" style="marker:none"/>
</svg>
